<mxfile host="65bd71144e">
    <diagram id="Y8mv3rLFl1QfFi_yTVQq" name="PÃ¡gina-1">
        <mxGraphModel dx="857" dy="269" grid="1" gridSize="10" guides="1" tooltips="1" connect="1" arrows="1" fold="1" page="1" pageScale="1" pageWidth="827" pageHeight="1169" math="0" shadow="0">
            <root>
                <mxCell id="0"/>
                <mxCell id="1" parent="0"/>
                <mxCell id="2" value="Task" style="rounded=0;whiteSpace=wrap;html=1;fontSize=16;" vertex="1" parent="1">
                    <mxGeometry x="510" y="145" width="120" height="60" as="geometry"/>
                </mxCell>
                <mxCell id="4" style="html=1;exitX=0.5;exitY=1;exitDx=0;exitDy=0;fontSize=16;endArrow=none;endFill=0;" edge="1" parent="1" source="3" target="2">
                    <mxGeometry relative="1" as="geometry"/>
                </mxCell>
                <mxCell id="3" value="&lt;u style=&quot;font-size: 16px;&quot;&gt;id&lt;/u&gt;" style="ellipse;whiteSpace=wrap;html=1;" vertex="1" parent="1">
                    <mxGeometry x="620" y="90" width="80" height="40" as="geometry"/>
                </mxCell>
                <mxCell id="9" style="edgeStyle=none;html=1;exitX=0.267;exitY=0.927;exitDx=0;exitDy=0;fontSize=16;endArrow=none;endFill=0;exitPerimeter=0;" edge="1" parent="1" source="5" target="2">
                    <mxGeometry relative="1" as="geometry"/>
                </mxCell>
                <mxCell id="5" value="&lt;span style=&quot;font-size: 16px;&quot;&gt;Title&lt;/span&gt;" style="ellipse;whiteSpace=wrap;html=1;" vertex="1" parent="1">
                    <mxGeometry x="664" y="145" width="80" height="40" as="geometry"/>
                </mxCell>
                <mxCell id="34" value="0,N" style="edgeStyle=none;html=1;exitX=0.5;exitY=0;exitDx=0;exitDy=0;entryX=0.5;entryY=1;entryDx=0;entryDy=0;fontSize=16;endArrow=none;endFill=0;" edge="1" parent="1" source="12" target="30">
                    <mxGeometry relative="1" as="geometry"/>
                </mxCell>
                <mxCell id="12" value="Category" style="rounded=0;whiteSpace=wrap;html=1;fontSize=16;" vertex="1" parent="1">
                    <mxGeometry x="590" y="507.5" width="120" height="60" as="geometry"/>
                </mxCell>
                <mxCell id="14" style="edgeStyle=none;html=1;exitX=0.5;exitY=0;exitDx=0;exitDy=0;fontSize=16;endArrow=none;endFill=0;" edge="1" parent="1" source="13" target="12">
                    <mxGeometry relative="1" as="geometry"/>
                </mxCell>
                <mxCell id="13" value="&lt;u style=&quot;font-size: 16px;&quot;&gt;id&lt;/u&gt;" style="ellipse;whiteSpace=wrap;html=1;" vertex="1" parent="1">
                    <mxGeometry x="584" y="592.5" width="80" height="40" as="geometry"/>
                </mxCell>
                <mxCell id="16" style="edgeStyle=none;html=1;exitX=0.5;exitY=0;exitDx=0;exitDy=0;fontSize=16;endArrow=none;endFill=0;entryX=0.75;entryY=1;entryDx=0;entryDy=0;" edge="1" parent="1" source="15" target="12">
                    <mxGeometry relative="1" as="geometry">
                        <mxPoint x="670" y="587.5" as="targetPoint"/>
                    </mxGeometry>
                </mxCell>
                <mxCell id="15" value="&lt;span style=&quot;font-size: 16px;&quot;&gt;Name&lt;/span&gt;" style="ellipse;whiteSpace=wrap;html=1;" vertex="1" parent="1">
                    <mxGeometry x="680" y="587.5" width="80" height="40" as="geometry"/>
                </mxCell>
                <mxCell id="31" value="1,1" style="edgeStyle=none;html=1;exitX=1;exitY=0.5;exitDx=0;exitDy=0;entryX=0;entryY=0.5;entryDx=0;entryDy=0;fontSize=16;endArrow=none;endFill=0;" edge="1" parent="1" source="18" target="29">
                    <mxGeometry relative="1" as="geometry"/>
                </mxCell>
                <mxCell id="18" value="User" style="rounded=0;whiteSpace=wrap;html=1;fontSize=16;" vertex="1" parent="1">
                    <mxGeometry x="180" y="150" width="120" height="60" as="geometry"/>
                </mxCell>
                <mxCell id="20" style="edgeStyle=none;html=1;exitX=1;exitY=0.5;exitDx=0;exitDy=0;entryX=0;entryY=0.5;entryDx=0;entryDy=0;fontSize=16;endArrow=none;endFill=0;" edge="1" parent="1" source="19" target="18">
                    <mxGeometry relative="1" as="geometry"/>
                </mxCell>
                <mxCell id="19" value="&lt;u style=&quot;font-size: 16px;&quot;&gt;id&lt;/u&gt;" style="ellipse;whiteSpace=wrap;html=1;" vertex="1" parent="1">
                    <mxGeometry x="80" y="170" width="80" height="40" as="geometry"/>
                </mxCell>
                <mxCell id="22" style="edgeStyle=none;html=1;exitX=1;exitY=1;exitDx=0;exitDy=0;entryX=0.25;entryY=0;entryDx=0;entryDy=0;fontSize=16;endArrow=none;endFill=0;" edge="1" parent="1" source="21" target="18">
                    <mxGeometry relative="1" as="geometry"/>
                </mxCell>
                <mxCell id="21" value="&lt;span style=&quot;font-size: 16px;&quot;&gt;Username&lt;/span&gt;" style="ellipse;whiteSpace=wrap;html=1;" vertex="1" parent="1">
                    <mxGeometry x="110" y="75" width="90" height="50" as="geometry"/>
                </mxCell>
                <mxCell id="24" style="edgeStyle=none;html=1;exitX=1;exitY=0.5;exitDx=0;exitDy=0;entryX=0;entryY=0.25;entryDx=0;entryDy=0;fontSize=16;endArrow=none;endFill=0;" edge="1" parent="1" source="23" target="18">
                    <mxGeometry relative="1" as="geometry"/>
                </mxCell>
                <mxCell id="23" value="&lt;span style=&quot;font-size: 16px;&quot;&gt;Name&lt;/span&gt;" style="ellipse;whiteSpace=wrap;html=1;" vertex="1" parent="1">
                    <mxGeometry x="60" y="125" width="80" height="35" as="geometry"/>
                </mxCell>
                <mxCell id="26" style="edgeStyle=none;html=1;fontSize=16;endArrow=none;endFill=0;" edge="1" parent="1" source="25" target="18">
                    <mxGeometry relative="1" as="geometry"/>
                </mxCell>
                <mxCell id="25" value="&lt;span style=&quot;font-size: 16px;&quot;&gt;Hash&lt;/span&gt;" style="ellipse;whiteSpace=wrap;html=1;" vertex="1" parent="1">
                    <mxGeometry x="210" y="85" width="80" height="40" as="geometry"/>
                </mxCell>
                <mxCell id="32" value="0,N" style="edgeStyle=none;html=1;exitX=1;exitY=0.5;exitDx=0;exitDy=0;entryX=0;entryY=0.5;entryDx=0;entryDy=0;fontSize=16;endArrow=none;endFill=0;" edge="1" parent="1" source="29" target="2">
                    <mxGeometry relative="1" as="geometry"/>
                </mxCell>
                <mxCell id="29" value="Has" style="rhombus;whiteSpace=wrap;html=1;fontSize=16;" vertex="1" parent="1">
                    <mxGeometry x="370" y="125" width="80" height="80" as="geometry"/>
                </mxCell>
                <mxCell id="33" value="0,N" style="edgeStyle=none;html=1;exitX=0.5;exitY=0;exitDx=0;exitDy=0;entryX=0.5;entryY=1;entryDx=0;entryDy=0;fontSize=16;endArrow=none;endFill=0;" edge="1" parent="1" source="30" target="2">
                    <mxGeometry relative="1" as="geometry">
                        <mxPoint x="590" y="260" as="sourcePoint"/>
                    </mxGeometry>
                </mxCell>
                <mxCell id="30" value="Belongs to" style="rhombus;whiteSpace=wrap;html=1;fontSize=16;" vertex="1" parent="1">
                    <mxGeometry x="600" y="330" width="100" height="100" as="geometry"/>
                </mxCell>
                <mxCell id="36" value="Status" style="rounded=0;whiteSpace=wrap;html=1;fontSize=16;" vertex="1" parent="1">
                    <mxGeometry x="390" y="465" width="120" height="60" as="geometry"/>
                </mxCell>
                <mxCell id="37" style="edgeStyle=none;html=1;exitX=0.625;exitY=0.325;exitDx=0;exitDy=0;fontSize=16;endArrow=none;endFill=0;entryX=0.25;entryY=1;entryDx=0;entryDy=0;exitPerimeter=0;" edge="1" parent="1" source="38" target="36">
                    <mxGeometry relative="1" as="geometry">
                        <mxPoint x="390" y="544.5" as="sourcePoint"/>
                    </mxGeometry>
                </mxCell>
                <mxCell id="38" value="&lt;u style=&quot;font-size: 16px;&quot;&gt;id&lt;/u&gt;" style="ellipse;whiteSpace=wrap;html=1;" vertex="1" parent="1">
                    <mxGeometry x="350" y="545" width="80" height="40" as="geometry"/>
                </mxCell>
                <mxCell id="39" style="edgeStyle=none;html=1;exitX=0.5;exitY=0;exitDx=0;exitDy=0;fontSize=16;endArrow=none;endFill=0;entryX=0.75;entryY=1;entryDx=0;entryDy=0;" edge="1" parent="1" source="40" target="36">
                    <mxGeometry relative="1" as="geometry">
                        <mxPoint x="468" y="529.5" as="targetPoint"/>
                    </mxGeometry>
                </mxCell>
                <mxCell id="40" value="&lt;span style=&quot;font-size: 16px;&quot;&gt;Title&lt;/span&gt;" style="ellipse;whiteSpace=wrap;html=1;" vertex="1" parent="1">
                    <mxGeometry x="440" y="544.5" width="80" height="40" as="geometry"/>
                </mxCell>
                <mxCell id="41" value="Priority" style="rounded=0;whiteSpace=wrap;html=1;fontSize=16;" vertex="1" parent="1">
                    <mxGeometry x="230" y="390" width="120" height="60" as="geometry"/>
                </mxCell>
                <mxCell id="42" style="edgeStyle=none;html=1;exitX=0.995;exitY=0.676;exitDx=0;exitDy=0;fontSize=16;endArrow=none;endFill=0;exitPerimeter=0;" edge="1" parent="1" source="43" target="41">
                    <mxGeometry relative="1" as="geometry"/>
                </mxCell>
                <mxCell id="43" value="&lt;u style=&quot;font-size: 16px;&quot;&gt;id&lt;/u&gt;" style="ellipse;whiteSpace=wrap;html=1;" vertex="1" parent="1">
                    <mxGeometry x="130" y="400" width="80" height="40" as="geometry"/>
                </mxCell>
                <mxCell id="44" style="edgeStyle=none;html=1;exitX=1;exitY=0;exitDx=0;exitDy=0;fontSize=16;endArrow=none;endFill=0;entryX=0.11;entryY=1.003;entryDx=0;entryDy=0;entryPerimeter=0;" edge="1" parent="1" source="45" target="41">
                    <mxGeometry relative="1" as="geometry">
                        <mxPoint x="282" y="440" as="targetPoint"/>
                    </mxGeometry>
                </mxCell>
                <mxCell id="45" value="&lt;span style=&quot;font-size: 16px;&quot;&gt;Title&lt;/span&gt;" style="ellipse;whiteSpace=wrap;html=1;" vertex="1" parent="1">
                    <mxGeometry x="140" y="465" width="80" height="40" as="geometry"/>
                </mxCell>
                <mxCell id="49" value="1,1" style="edgeStyle=none;html=1;exitX=0;exitY=1;exitDx=0;exitDy=0;entryX=0.917;entryY=0;entryDx=0;entryDy=0;entryPerimeter=0;fontSize=16;endArrow=none;endFill=0;" edge="1" parent="1" source="47" target="41">
                    <mxGeometry relative="1" as="geometry"/>
                </mxCell>
                <mxCell id="50" value="0,N" style="edgeStyle=none;html=1;exitX=1;exitY=0;exitDx=0;exitDy=0;entryX=0.173;entryY=1.021;entryDx=0;entryDy=0;entryPerimeter=0;fontSize=16;endArrow=none;endFill=0;" edge="1" parent="1" source="47" target="2">
                    <mxGeometry relative="1" as="geometry"/>
                </mxCell>
                <mxCell id="47" value="Has" style="rhombus;whiteSpace=wrap;html=1;fontSize=16;" vertex="1" parent="1">
                    <mxGeometry x="374" y="260" width="80" height="80" as="geometry"/>
                </mxCell>
                <mxCell id="51" value="0,N" style="edgeStyle=none;html=1;exitX=1;exitY=0;exitDx=0;exitDy=0;entryX=0.389;entryY=0.99;entryDx=0;entryDy=0;entryPerimeter=0;fontSize=16;endArrow=none;endFill=0;" edge="1" parent="1" source="48" target="2">
                    <mxGeometry relative="1" as="geometry"/>
                </mxCell>
                <mxCell id="52" value="1,1" style="edgeStyle=none;html=1;exitX=0;exitY=1;exitDx=0;exitDy=0;entryX=0.593;entryY=0.031;entryDx=0;entryDy=0;entryPerimeter=0;fontSize=16;endArrow=none;endFill=0;" edge="1" parent="1" source="48" target="36">
                    <mxGeometry relative="1" as="geometry"/>
                </mxCell>
                <mxCell id="48" value="Has" style="rhombus;whiteSpace=wrap;html=1;fontSize=16;" vertex="1" parent="1">
                    <mxGeometry x="470" y="320" width="80" height="80" as="geometry"/>
                </mxCell>
                <mxCell id="57" style="edgeStyle=none;html=1;exitX=0;exitY=0.5;exitDx=0;exitDy=0;entryX=0.996;entryY=0.628;entryDx=0;entryDy=0;entryPerimeter=0;fontSize=16;endArrow=none;endFill=0;" edge="1" parent="1" source="56" target="12">
                    <mxGeometry relative="1" as="geometry"/>
                </mxCell>
                <mxCell id="56" value="&lt;span style=&quot;font-size: 16px;&quot;&gt;Color&lt;/span&gt;" style="ellipse;whiteSpace=wrap;html=1;" vertex="1" parent="1">
                    <mxGeometry x="730" y="527.5" width="80" height="40" as="geometry"/>
                </mxCell>
            </root>
        </mxGraphModel>
    </diagram>
</mxfile>